# xmcd CD database file
# Generated: Fri Dec 13 17:13:56 2002 by KSCD
# 
# Track frame offsets:
#       150
#       19292
#       37950
#       57937
#       78340
#       100207
#       121275
#       137927
#       157997
#       179032
#       197702
#       211887
#
# Disc length: 2915 seconds
#
# Revision: 1
# Processed by: cddbd v1.4PL0 Copyright (c) Steve Scherf et al.
# Submitted via: Kscd 1.3.3
#
DISCID=a40b610c
DTITLE=Shania Twain - The Woman In Me
DYEAR=1900
DGENRE=
TTITLE0=Home Ain't Where His Heart Is Anymore
TTITLE1=Any Man Of Mine
TTITLE2=Whose Bed Have Your Boots Been Under?
TTITLE3=If You're Not In It For Love, I'm Outta Here!
TTITLE4=The Woman In Me
TTITLE5=Is There Life After Love?
TTITLE6=If It Don't Take Two
TTITLE7=You Win My Love
TTITLE8=Raining On Our Love
TTITLE9=Leaving Is The Only Way Out
TTITLE10=No One Needs To Know
TTITLE11=God Bless The Child
EXTD=
EXTT0=
EXTT1=
EXTT2=
EXTT3=
EXTT4=
EXTT5=
EXTT6=
EXTT7=
EXTT8=
EXTT9=
EXTT10=
EXTT11=
PLAYORDER=
